<!--?xml version="1.0" encoding="utf-8"?-->
<!-- Generator: Adobe Illustrator 15.1.0, SVG Export Plug-In . SVG Version: 6.00 Build 0)  -->

<svg version="1.1" id="_x32_" xmlns="http://www.w3.org/2000/svg" xmlns:xlink="http://www.w3.org/1999/xlink" x="0px" y="0px" width="512px" height="512px" viewBox="0 0 512 512" style="width: 256px; height: 256px; opacity: 1;" xml:space="preserve">
<style type="text/css">

	.st0{fill:#4B4B4B;}

</style>
<g>
	<path class="st0" d="M406.219,301.156c-0.172-0.906-0.391-2.109-0.688-3.625v0.016c-2.031-10.922-6.906-36.922-12.078-64.516
		l-0.016-0.016c-3.406-18.125-6.938-36.953-9.938-52.641c-1.484-7.844-2.844-14.906-3.953-20.719
		c-1.125-5.813-2.016-10.359-2.594-13.219l0,0c-1.203-6-3.719-11.516-7.125-16.313c-5.125-7.219-12.234-12.891-20.344-16.781
		c-8.125-3.891-17.313-6.031-26.828-6.031c-5.797,0-11.719,0.813-17.563,2.516c-5.828,1.703-11.563,4.328-16.984,7.953
		c-6.891,4.594-13.234,6.969-18.703,8.25c-2.734,0.656-5.25,1-7.484,1.219c-2.25,0.188-4.219,0.234-5.922,0.234
		c-1.625,0-3.063,0.047-4.406,0.047c-1.438,0-2.797-0.047-4.344-0.234c-2.328-0.297-5.109-0.906-8.938-2.359
		s-8.656-3.75-14.813-7.406c-11.063-6.563-23.094-9.531-34.563-9.531c-6.313,0-12.469,0.891-18.25,2.594
		c-8.688,2.563-16.594,6.938-22.875,13c-3.156,3.031-5.891,6.484-8.063,10.313c-2.188,3.844-3.797,8.063-4.703,12.531h0.016
		c-0.594,2.859-1.484,7.406-2.594,13.219c-3.375,17.422-8.813,46.156-13.906,73.375c-5.203,27.594-10.063,53.594-12.109,64.516
		l0.016-0.016c-0.297,1.516-0.531,2.719-0.688,3.625H0l6.188,12.609c0.313,0.609,3.359,6.656,11,15.359
		c11.469,13.063,33.25,32.063,71.156,47.688S180.172,404.688,256,404.688c50.563,0,91.359-5.438,124.188-13.703
		c49.25-12.391,80.516-31.172,99.5-47.156c19-16,25.672-29.141,26.125-30.063L512,301.156H406.219z M135.75,236.25
		c3.406-18.125,6.953-36.938,9.938-52.609c1.5-7.844,2.844-14.891,3.953-20.672s2-10.313,2.563-13.063
		c0.703-3.5,2.125-6.672,4.172-9.578c3.094-4.359,7.656-8.078,13.313-10.703c5.625-2.625,12.281-4.125,19.25-4.125
		c8.469,0,17.344,2.188,25.641,7.094c9.078,5.375,16.219,8.531,22.266,10.313c3.031,0.891,5.75,1.438,8.219,1.75
		s4.672,0.375,6.531,0.375c1.75,0,3.219-0.063,4.406-0.047c2,0,4.531-0.047,7.484-0.313c4.406-0.391,9.719-1.281,15.563-3.172
		c5.859-1.891,12.234-4.781,18.781-9.156c3.922-2.625,8.031-4.5,12.203-5.719c4.188-1.234,8.438-1.813,12.625-1.813
		c4.563,0,9.063,0.688,13.25,1.969c6.281,1.922,11.844,5.156,15.969,9.188c2.078,2.016,3.813,4.219,5.125,6.563
		c1.328,2.313,2.281,4.781,2.813,7.375c0.547,2.75,1.438,7.281,2.563,13.063c3.344,17.344,8.766,46.094,13.875,73.281
		c0.672,3.594,1.344,7.156,2,10.672h-244.5C134.406,243.406,135.078,239.844,135.75,236.25z M478.781,320.719
		c-11.063,11.625-31.406,28.141-66.688,41.875c-35.25,13.703-85.469,24.594-156.094,24.594c-49.313,0-88.656-5.313-119.938-13.172
		c-46.875-11.813-75.563-29.328-92.484-43.578c-5.109-4.297-9.141-8.313-12.266-11.781H256h224.688
		C480.078,319.344,479.469,320.016,478.781,320.719z" style="fill: rgb(75, 75, 75);"></path>
</g>
</svg>
